<svg xmlns="http://www.w3.org/2000/svg" width="228.743" height="59.372" viewBox="0 0 228.743 59.372"><g transform="translate(0 -1)"><g transform="translate(0 5.035)"><path d="M139.654,271a5.8,5.8,0,0,1,5.79,5.79v14.468a5.79,5.79,0,0,1-11.579,0V276.79A5.8,5.8,0,0,1,139.654,271Z" transform="translate(-104.575 -241.711)" fill="#fff"/><path d="M.143,271h5.6a5.6,5.6,0,1,1-5.6,5.6Z" transform="translate(43.968 -241.711)" fill="#fff"/><path d="M26.047,139.654a5.8,5.8,0,0,1-5.79,5.79H5.79a5.79,5.79,0,1,1,0-11.579H20.258A5.8,5.8,0,0,1,26.047,139.654Z" transform="translate(29.29 -119.396)" fill="#fff"/><path d="M142.885,11.353h-5.6v-5.6a5.6,5.6,0,1,1,5.6,5.6Z" transform="translate(-107.99 -0.128)" fill="#ffb901"/><path d="M276.79,26.047a5.8,5.8,0,0,1-5.79-5.79V5.79a5.79,5.79,0,0,1,11.579,0V20.257a5.8,5.8,0,0,1-5.79,5.79Z" transform="translate(-256.532 0)" fill="#ffb901"/><path d="M419.347,148.49h-5.605a5.6,5.6,0,1,1,5.605-5.6Z" transform="translate(-408.122 -122.443)" fill="#ffb901"/><g transform="translate(0 29.289)"><path d="M271,276.79a5.8,5.8,0,0,1,5.79-5.79h14.468a5.79,5.79,0,1,1,0,11.579H276.79A5.8,5.8,0,0,1,271,276.79Z" transform="translate(-271 -271)" fill="#fff"/><path d="M276.6,408.137h5.6v5.605a5.6,5.6,0,1,1-5.6-5.605Z" transform="translate(-256.163 -393.315)" fill="#fff"/></g></g><text transform="translate(71.743 47)" fill="#fff" font-size="44" font-family="STC-Bold, STC" font-weight="700"><tspan x="0" y="0">MoSalah</tspan></text></g></svg>